<?xml version="1.0" standalone="no"?>
<!DOCTYPE svg PUBLIC "-//W3C//DTD SVG 20010904//EN"
 "http://www.w3.org/TR/2001/REC-SVG-20010904/DTD/svg10.dtd">
<svg version="1.0" xmlns="http://www.w3.org/2000/svg"
 width="153.000000pt" height="176.000000pt" viewBox="0 0 153.000000 176.000000"
 preserveAspectRatio="xMidYMid meet">

<g transform="translate(0.000000,176.000000) scale(0.100000,-0.100000)"
fill="#000000" stroke="none">
<path d="M1220 1148 c-42 -12 -133 -77 -176 -125 l-31 -36 -59 21 c-32 11 -59
24 -60 29 -1 4 -5 20 -8 34 -3 14 -17 31 -30 37 -21 9 -30 7 -60 -13 -32 -21
-36 -22 -36 -7 0 56 -64 80 -107 40 l-23 -21 -74 21 c-41 12 -83 22 -94 22
-21 0 -62 -43 -62 -65 0 -10 249 -199 394 -299 18 -13 14 -20 -75 -121 -52
-59 -105 -121 -119 -137 l-25 -30 -53 21 c-29 12 -61 21 -70 21 -22 0 -72 -50
-72 -71 0 -20 252 -269 272 -269 9 0 29 16 44 35 l26 35 -22 61 c-20 52 -21
62 -9 74 8 7 68 61 134 119 120 105 120 105 141 85 40 -37 60 -13 29 35 -15
22 -13 25 60 91 42 37 77 66 79 64 1 -2 12 -38 25 -79 133 -449 132 -445 109
-438 -7 3 -58 67 -114 144 -97 131 -129 162 -129 122 0 -26 221 -328 240 -328
6 0 24 13 39 29 l27 28 -23 86 c-22 84 -22 86 -4 106 21 23 26 75 9 92 -6 6
-23 12 -37 12 -31 2 -31 2 -6 34 11 14 20 36 20 49 0 33 -36 67 -64 60 -20 -5
-24 1 -38 56 l-17 62 53 56 c92 96 128 193 89 238 -23 26 -50 32 -93 20z
m-560 -97 c91 -27 200 -59 243 -72 43 -12 76 -25 75 -29 -2 -4 -32 -39 -69
-78 l-65 -72 -185 136 c-101 74 -191 139 -199 144 -13 8 -13 11 -1 19 8 5 19
8 25 6 6 -2 85 -26 176 -54z m50 44 c0 -8 -7 -15 -15 -15 -16 0 -20 12 -8 23
11 12 23 8 23 -8z m574 -1 c4 -9 -5 -42 -19 -72 -28 -62 -103 -140 -320 -333
-319 -285 -415 -358 -415 -319 0 10 148 186 321 380 171 192 307 326 352 345
43 19 74 18 81 -1z m-443 -47 c-13 -13 -26 -3 -16 12 3 6 11 8 17 5 6 -4 6
-10 -1 -17z m403 -386 c3 -5 -1 -14 -9 -21 -13 -10 -15 -9 -15 9 0 21 14 28
24 12z m36 -141 c0 -5 -4 -10 -10 -10 -5 0 -10 5 -10 10 0 6 5 10 10 10 6 0
10 -4 10 -10z m-771 -41 c36 -13 38 -25 10 -58 l-20 -25 -36 36 c-51 51 -29
73 46 47z m154 -166 c14 -37 15 -43 1 -54 -13 -10 -21 -6 -52 25 l-37 37 30
24 c33 27 36 26 58 -32z"/>
<path d="M280 971 c-45 -45 -80 -87 -77 -94 9 -28 37 -13 112 63 73 74 78 81
63 96 -15 15 -22 10 -98 -65z"/>
<path d="M371 920 c-47 -47 -58 -80 -27 -80 15 0 116 102 116 118 0 27 -42 9
-89 -38z"/>
<path d="M478 885 c-39 -36 -47 -58 -27 -71 15 -9 104 80 95 95 -12 18 -29 12
-68 -24z"/>
<path d="M1040 334 c-42 -39 -50 -58 -25 -68 17 -6 95 58 95 79 0 29 -32 23
-70 -11z"/>
<path d="M1081 234 c-52 -46 -67 -84 -33 -84 26 0 116 95 109 114 -10 24 -20
20 -76 -30z"/>
<path d="M1122 136 c-70 -69 -86 -103 -57 -113 18 -6 169 153 162 171 -11 28
-30 17 -105 -58z"/>
</g>
</svg>
